<svg width="24" height="24" viewBox="0 0 24 24" fill="none" xmlns="http://www.w3.org/2000/svg">
<path fill-rule="evenodd" clip-rule="evenodd" d="M12 24C18.6274 24 24 18.6274 24 12C24 5.37258 18.6274 0 12 0C5.37258 0 0 5.37258 0 12C0 18.6274 5.37258 24 12 24ZM11.7244 13.92V20H12.5118L17 15.44L13.6142 12L17 8.56L12.5118 4H11.7244V10.08L8.10236 6.4L7 7.52L11.4094 12L7 16.48L8.10236 17.6L11.7244 13.92ZM14.7953 8.56L13.2992 10.08V7.08L14.7953 8.56ZM14.7953 15.44L13.2992 16.92V13.92L14.7953 15.44Z" fill="#41B631"/>
</svg>
