<svg width="12" height="7" viewBox="0 0 12 7" fill="none" xmlns="http://www.w3.org/2000/svg">
<path d="M0.699999 0.30039C0.883332 0.117056 1.11666 0.0253902 1.4 0.0253902C1.68333 0.0253902 1.91667 0.117057 2.1 0.30039L6 4.20039L9.9 0.30039C10.0833 0.117057 10.3167 0.0253906 10.6 0.0253906C10.8833 0.0253906 11.1167 0.117057 11.3 0.30039C11.4833 0.483724 11.575 0.717057 11.575 1.00039C11.575 1.28372 11.4833 1.51706 11.3 1.70039L6.7 6.30039C6.6 6.40039 6.49166 6.47139 6.375 6.51339C6.25833 6.55539 6.13333 6.57606 6 6.57539C5.86666 6.57539 5.74166 6.55439 5.625 6.51239C5.50833 6.47039 5.4 6.39972 5.3 6.30039L0.699999 1.70039C0.516665 1.51706 0.424997 1.28372 0.424997 1.00039C0.424997 0.717056 0.516665 0.483723 0.699999 0.30039Z" fill="#1C293E"/>
</svg>
