<svg width="20" height="11" viewBox="0 0 20 11" fill="none" xmlns="http://www.w3.org/2000/svg">
<path d="M1.16666 0.500324C1.47221 0.194769 1.8611 0.0419914 2.33332 0.0419914C2.80555 0.0419915 3.19444 0.194769 3.49999 0.500324L9.99999 7.00033L16.5 0.500325C16.8055 0.194769 17.1944 0.0419921 17.6667 0.0419921C18.1389 0.0419921 18.5278 0.194769 18.8333 0.500325C19.1389 0.805881 19.2917 1.19477 19.2917 1.66699C19.2917 2.13921 19.1389 2.5281 18.8333 2.83366L11.1667 10.5003C11 10.667 10.8194 10.7853 10.625 10.8553C10.4305 10.9253 10.2222 10.9598 9.99999 10.9587C9.77777 10.9587 9.56943 10.9237 9.37499 10.8537C9.18055 10.7837 8.99999 10.6659 8.83332 10.5003L1.16666 2.83366C0.861103 2.5281 0.708322 2.13921 0.708322 1.66699C0.708322 1.19477 0.861103 0.80588 1.16666 0.500324Z" fill="#41B631"/>
</svg>
