<svg width="342" height="103" viewBox="0 0 342 103" fill="none" xmlns="http://www.w3.org/2000/svg">
<g opacity="0.6">
<path d="M25.1213 2.4V8H24.3853V3.624L22.5533 6.672H22.4573L20.6253 3.632V8H19.8813V2.4H20.7213L22.5053 5.36L24.2812 2.4H25.1213Z" fill="#1C293E"/>
<path d="M34.6582 2.4H35.2982V8H34.5622V3.2L33.3702 3.552L33.1862 2.912L34.6582 2.4Z" fill="#1C293E"/>
<path d="M44.1786 8V7.392L46.1546 5.376C46.6826 4.848 46.9466 4.39467 46.9466 4.016C46.9466 3.70133 46.8506 3.456 46.6586 3.28C46.4666 3.104 46.232 3.016 45.9546 3.016C45.4266 3.016 45.0426 3.26667 44.8026 3.768L44.1786 3.4C44.3546 3.03733 44.5973 2.76267 44.9066 2.576C45.2213 2.38933 45.568 2.296 45.9466 2.296C46.416 2.296 46.824 2.45067 47.1706 2.76C47.5173 3.06933 47.6906 3.48533 47.6906 4.008C47.6906 4.57333 47.3573 5.18933 46.6906 5.856L45.2586 7.28H47.7946V8H44.1786Z" fill="#1C293E"/>
<path d="M58.8874 4.696C59.314 4.776 59.6634 4.96 59.9354 5.248C60.2074 5.536 60.3434 5.90133 60.3434 6.344C60.3434 6.888 60.1567 7.31733 59.7834 7.632C59.41 7.94667 58.9567 8.104 58.4234 8.104C57.9967 8.104 57.618 8.008 57.2874 7.816C56.9567 7.61867 56.722 7.336 56.5834 6.968L57.2074 6.6C57.3727 7.11733 57.778 7.376 58.4234 7.376C58.77 7.376 59.0527 7.28533 59.2714 7.104C59.49 6.92267 59.5994 6.66933 59.5994 6.344C59.5994 6.01867 59.49 5.76533 59.2714 5.584C59.0527 5.39733 58.77 5.304 58.4234 5.304H58.2314L57.9354 4.848L59.2314 3.096H56.7434V2.4H60.1034V3.056L58.8874 4.696Z" fill="#1C293E"/>
<path d="M72.6517 6.24V6.936H71.9717V8H71.2277V6.936H68.3717V6.24L70.3797 2.4H71.1797L69.1717 6.24H71.2277V4.656H71.9717V6.24H72.6517Z" fill="#1C293E"/>
<path d="M81.9881 4.584C82.5161 4.584 82.9615 4.74133 83.3241 5.056C83.6921 5.36533 83.8761 5.79467 83.8761 6.344C83.8761 6.888 83.6895 7.31733 83.3161 7.632C82.9428 7.94667 82.4895 8.104 81.9561 8.104C81.5295 8.104 81.1481 8.00267 80.8121 7.8C80.4761 7.592 80.2415 7.29333 80.1081 6.904L80.7401 6.544C80.8148 6.816 80.9588 7.024 81.1721 7.168C81.3855 7.30667 81.6468 7.376 81.9561 7.376C82.3081 7.376 82.5935 7.28533 82.8121 7.104C83.0308 6.92267 83.1401 6.66933 83.1401 6.344C83.1401 6.01867 83.0308 5.76533 82.8121 5.584C82.5935 5.39733 82.3135 5.304 81.9721 5.304H80.3881L80.5961 2.4H83.6601V3.096H81.2681L81.1721 4.584H81.9881Z" fill="#1C293E"/>
<path d="M94.4997 4.336C95.0597 4.336 95.521 4.512 95.8837 4.864C96.2463 5.21067 96.4277 5.66133 96.4277 6.216C96.4277 6.77067 96.2463 7.224 95.8837 7.576C95.521 7.928 95.0597 8.104 94.4997 8.104C93.9343 8.104 93.4703 7.928 93.1077 7.576C92.7503 7.224 92.5717 6.77067 92.5717 6.216C92.5717 5.784 92.6837 5.41067 92.9077 5.096L94.7077 2.4H95.5557L94.2357 4.352C94.353 4.34133 94.441 4.336 94.4997 4.336ZM93.6357 7.072C93.8597 7.28533 94.1477 7.392 94.4997 7.392C94.8517 7.392 95.137 7.28533 95.3557 7.072C95.5797 6.85333 95.6917 6.568 95.6917 6.216C95.6917 5.864 95.5797 5.58133 95.3557 5.368C95.137 5.15467 94.8517 5.048 94.4997 5.048C94.1423 5.048 93.8543 5.15467 93.6357 5.368C93.417 5.58133 93.3077 5.864 93.3077 6.216C93.3077 6.568 93.417 6.85333 93.6357 7.072Z" fill="#1C293E"/>
<path d="M104.683 2.4H108.179V3.064L106.139 8H105.363L107.387 3.104H104.683V2.4Z" fill="#1C293E"/>
<path d="M119.045 5.104C119.317 5.24267 119.531 5.42933 119.685 5.664C119.84 5.89867 119.917 6.16533 119.917 6.464C119.917 6.976 119.739 7.37867 119.381 7.672C119.024 7.96 118.563 8.104 117.997 8.104C117.437 8.104 116.979 7.96 116.621 7.672C116.264 7.37867 116.085 6.976 116.085 6.464C116.085 6.16533 116.163 5.89867 116.317 5.664C116.472 5.42933 116.685 5.24267 116.957 5.104C116.499 4.816 116.269 4.408 116.269 3.88C116.269 3.37333 116.437 2.984 116.773 2.712C117.115 2.43467 117.523 2.296 117.997 2.296C118.477 2.296 118.885 2.43467 119.221 2.712C119.563 2.984 119.733 3.37333 119.733 3.88C119.733 4.408 119.504 4.816 119.045 5.104ZM117.997 3.008C117.715 3.008 117.477 3.08267 117.285 3.232C117.099 3.38133 117.005 3.60267 117.005 3.896C117.005 4.17867 117.101 4.4 117.293 4.56C117.485 4.71467 117.72 4.792 117.997 4.792C118.275 4.792 118.509 4.71467 118.701 4.56C118.893 4.4 118.989 4.17867 118.989 3.896C118.989 3.60267 118.896 3.38133 118.709 3.232C118.523 3.08267 118.285 3.008 117.997 3.008ZM117.997 7.392C118.355 7.392 118.64 7.30933 118.853 7.144C119.072 6.97333 119.181 6.73067 119.181 6.416C119.181 6.10667 119.072 5.86933 118.853 5.704C118.64 5.53333 118.355 5.448 117.997 5.448C117.645 5.448 117.36 5.53333 117.141 5.704C116.928 5.86933 116.821 6.10667 116.821 6.416C116.821 6.73067 116.928 6.97333 117.141 7.144C117.36 7.30933 117.645 7.392 117.997 7.392Z" fill="#1C293E"/>
<path d="M132.428 4.176C132.428 4.608 132.313 4.984 132.084 5.304H132.092L130.284 8H129.444L130.772 6.04C130.654 6.05067 130.564 6.056 130.5 6.056C129.934 6.056 129.47 5.88267 129.108 5.536C128.75 5.184 128.572 4.73067 128.572 4.176C128.572 3.62133 128.75 3.17067 129.108 2.824C129.47 2.472 129.934 2.296 130.5 2.296C131.065 2.296 131.526 2.472 131.884 2.824C132.246 3.17067 132.428 3.62133 132.428 4.176ZM129.636 3.328C129.417 3.54133 129.308 3.824 129.308 4.176C129.308 4.528 129.417 4.81333 129.636 5.032C129.86 5.24533 130.148 5.352 130.5 5.352C130.852 5.352 131.137 5.24533 131.356 5.032C131.58 4.81333 131.692 4.528 131.692 4.176C131.692 3.824 131.582 3.54133 131.364 3.328C131.145 3.11467 130.857 3.008 130.5 3.008C130.148 3.008 129.86 3.11467 129.636 3.328Z" fill="#1C293E"/>
<path d="M140.139 2.4H140.779V8H140.043V3.2L138.851 3.552L138.667 2.912L140.139 2.4ZM145.518 7.312C145.14 7.84 144.609 8.104 143.926 8.104C143.244 8.104 142.713 7.84 142.334 7.312C141.956 6.784 141.766 6.08 141.766 5.2C141.766 4.32 141.956 3.616 142.334 3.088C142.713 2.56 143.244 2.296 143.926 2.296C144.609 2.296 145.14 2.56 145.518 3.088C145.897 3.616 146.086 4.32 146.086 5.2C146.086 6.08 145.897 6.784 145.518 7.312ZM142.878 6.808C143.124 7.18667 143.473 7.376 143.926 7.376C144.38 7.376 144.729 7.18667 144.974 6.808C145.225 6.42933 145.35 5.89333 145.35 5.2C145.35 4.50667 145.225 3.97067 144.974 3.592C144.729 3.208 144.38 3.016 143.926 3.016C143.473 3.016 143.124 3.20533 142.878 3.584C142.633 3.96267 142.51 4.50133 142.51 5.2C142.51 5.89333 142.633 6.42933 142.878 6.808Z" fill="#1C293E"/>
<path d="M153.732 2.4H154.372V8H153.636V3.2L152.444 3.552L152.26 2.912L153.732 2.4ZM156.584 2.4H157.224V8H156.488V3.2L155.296 3.552L155.112 2.912L156.584 2.4Z" fill="#1C293E"/>
<path d="M167.369 2.4H168.113V8H167.513L164.633 3.816V8H163.889V2.4H164.489L167.369 6.576V2.4Z" fill="#1C293E"/>
<path d="M178.658 2.4H179.298V8H178.562V3.2L177.37 3.552L177.186 2.912L178.658 2.4Z" fill="#1C293E"/>
<path d="M188.679 8V7.392L190.655 5.376C191.183 4.848 191.447 4.39467 191.447 4.016C191.447 3.70133 191.351 3.456 191.159 3.28C190.967 3.104 190.732 3.016 190.455 3.016C189.927 3.016 189.543 3.26667 189.303 3.768L188.679 3.4C188.855 3.03733 189.097 2.76267 189.407 2.576C189.721 2.38933 190.068 2.296 190.447 2.296C190.916 2.296 191.324 2.45067 191.671 2.76C192.017 3.06933 192.191 3.48533 192.191 4.008C192.191 4.57333 191.857 5.18933 191.191 5.856L189.759 7.28H192.295V8H188.679Z" fill="#1C293E"/>
<path d="M203.387 4.696C203.814 4.776 204.163 4.96 204.435 5.248C204.707 5.536 204.843 5.90133 204.843 6.344C204.843 6.888 204.657 7.31733 204.283 7.632C203.91 7.94667 203.457 8.104 202.923 8.104C202.497 8.104 202.118 8.008 201.787 7.816C201.457 7.61867 201.222 7.336 201.083 6.968L201.707 6.6C201.873 7.11733 202.278 7.376 202.923 7.376C203.27 7.376 203.553 7.28533 203.771 7.104C203.99 6.92267 204.099 6.66933 204.099 6.344C204.099 6.01867 203.99 5.76533 203.771 5.584C203.553 5.39733 203.27 5.304 202.923 5.304H202.731L202.435 4.848L203.731 3.096H201.243V2.4H204.603V3.056L203.387 4.696Z" fill="#1C293E"/>
<path d="M216.152 6.24V6.936H215.472V8H214.728V6.936H211.872V6.24L213.88 2.4H214.68L212.672 6.24H214.728V4.656H215.472V6.24H216.152Z" fill="#1C293E"/>
<path d="M226.488 4.584C227.016 4.584 227.461 4.74133 227.824 5.056C228.192 5.36533 228.376 5.79467 228.376 6.344C228.376 6.888 228.189 7.31733 227.816 7.632C227.443 7.94667 226.989 8.104 226.456 8.104C226.029 8.104 225.648 8.00267 225.312 7.8C224.976 7.592 224.741 7.29333 224.608 6.904L225.24 6.544C225.315 6.816 225.459 7.024 225.672 7.168C225.885 7.30667 226.147 7.376 226.456 7.376C226.808 7.376 227.093 7.28533 227.312 7.104C227.531 6.92267 227.64 6.66933 227.64 6.344C227.64 6.01867 227.531 5.76533 227.312 5.584C227.093 5.39733 226.813 5.304 226.472 5.304H224.888L225.096 2.4H228.16V3.096H225.768L225.672 4.584H226.488Z" fill="#1C293E"/>
<path d="M238.5 4.336C239.06 4.336 239.521 4.512 239.884 4.864C240.246 5.21067 240.428 5.66133 240.428 6.216C240.428 6.77067 240.246 7.224 239.884 7.576C239.521 7.928 239.06 8.104 238.5 8.104C237.934 8.104 237.47 7.928 237.108 7.576C236.75 7.224 236.572 6.77067 236.572 6.216C236.572 5.784 236.684 5.41067 236.908 5.096L238.708 2.4H239.556L238.236 4.352C238.353 4.34133 238.441 4.336 238.5 4.336ZM237.636 7.072C237.86 7.28533 238.148 7.392 238.5 7.392C238.852 7.392 239.137 7.28533 239.356 7.072C239.58 6.85333 239.692 6.568 239.692 6.216C239.692 5.864 239.58 5.58133 239.356 5.368C239.137 5.15467 238.852 5.048 238.5 5.048C238.142 5.048 237.854 5.15467 237.636 5.368C237.417 5.58133 237.308 5.864 237.308 6.216C237.308 6.568 237.417 6.85333 237.636 7.072Z" fill="#1C293E"/>
<path d="M248.183 2.4H251.679V3.064L249.639 8H248.863L250.887 3.104H248.183V2.4Z" fill="#1C293E"/>
<path d="M263.545 5.104C263.817 5.24267 264.031 5.42933 264.185 5.664C264.34 5.89867 264.417 6.16533 264.417 6.464C264.417 6.976 264.239 7.37867 263.881 7.672C263.524 7.96 263.063 8.104 262.497 8.104C261.937 8.104 261.479 7.96 261.121 7.672C260.764 7.37867 260.585 6.976 260.585 6.464C260.585 6.16533 260.663 5.89867 260.817 5.664C260.972 5.42933 261.185 5.24267 261.457 5.104C260.999 4.816 260.769 4.408 260.769 3.88C260.769 3.37333 260.937 2.984 261.273 2.712C261.615 2.43467 262.023 2.296 262.497 2.296C262.977 2.296 263.385 2.43467 263.721 2.712C264.063 2.984 264.233 3.37333 264.233 3.88C264.233 4.408 264.004 4.816 263.545 5.104ZM262.497 3.008C262.215 3.008 261.977 3.08267 261.785 3.232C261.599 3.38133 261.505 3.60267 261.505 3.896C261.505 4.17867 261.601 4.4 261.793 4.56C261.985 4.71467 262.22 4.792 262.497 4.792C262.775 4.792 263.009 4.71467 263.201 4.56C263.393 4.4 263.489 4.17867 263.489 3.896C263.489 3.60267 263.396 3.38133 263.209 3.232C263.023 3.08267 262.785 3.008 262.497 3.008ZM262.497 7.392C262.855 7.392 263.14 7.30933 263.353 7.144C263.572 6.97333 263.681 6.73067 263.681 6.416C263.681 6.10667 263.572 5.86933 263.353 5.704C263.14 5.53333 262.855 5.448 262.497 5.448C262.145 5.448 261.86 5.53333 261.641 5.704C261.428 5.86933 261.321 6.10667 261.321 6.416C261.321 6.73067 261.428 6.97333 261.641 7.144C261.86 7.30933 262.145 7.392 262.497 7.392Z" fill="#1C293E"/>
<path d="M276.428 4.176C276.428 4.608 276.313 4.984 276.084 5.304H276.092L274.284 8H273.444L274.772 6.04C274.654 6.05067 274.564 6.056 274.5 6.056C273.934 6.056 273.47 5.88267 273.108 5.536C272.75 5.184 272.572 4.73067 272.572 4.176C272.572 3.62133 272.75 3.17067 273.108 2.824C273.47 2.472 273.934 2.296 274.5 2.296C275.065 2.296 275.526 2.472 275.884 2.824C276.246 3.17067 276.428 3.62133 276.428 4.176ZM273.636 3.328C273.417 3.54133 273.308 3.824 273.308 4.176C273.308 4.528 273.417 4.81333 273.636 5.032C273.86 5.24533 274.148 5.352 274.5 5.352C274.852 5.352 275.137 5.24533 275.356 5.032C275.58 4.81333 275.692 4.528 275.692 4.176C275.692 3.824 275.582 3.54133 275.364 3.328C275.145 3.11467 274.857 3.008 274.5 3.008C274.148 3.008 273.86 3.11467 273.636 3.328Z" fill="#1C293E"/>
<path d="M284.639 2.4H285.279V8H284.543V3.2L283.351 3.552L283.167 2.912L284.639 2.4ZM290.018 7.312C289.64 7.84 289.109 8.104 288.426 8.104C287.744 8.104 287.213 7.84 286.834 7.312C286.456 6.784 286.266 6.08 286.266 5.2C286.266 4.32 286.456 3.616 286.834 3.088C287.213 2.56 287.744 2.296 288.426 2.296C289.109 2.296 289.64 2.56 290.018 3.088C290.397 3.616 290.586 4.32 290.586 5.2C290.586 6.08 290.397 6.784 290.018 7.312ZM287.378 6.808C287.624 7.18667 287.973 7.376 288.426 7.376C288.88 7.376 289.229 7.18667 289.474 6.808C289.725 6.42933 289.85 5.89333 289.85 5.2C289.85 4.50667 289.725 3.97067 289.474 3.592C289.229 3.208 288.88 3.016 288.426 3.016C287.973 3.016 287.624 3.20533 287.378 3.584C287.133 3.96267 287.01 4.50133 287.01 5.2C287.01 5.89333 287.133 6.42933 287.378 6.808Z" fill="#1C293E"/>
<path d="M297.232 2.4H297.872V8H297.136V3.2L295.944 3.552L295.76 2.912L297.232 2.4ZM300.084 2.4H300.724V8H299.988V3.2L298.796 3.552L298.612 2.912L300.084 2.4Z" fill="#1C293E"/>
<path d="M313.121 2.4V8H312.385V3.624L310.553 6.672H310.457L308.625 3.632V8H307.881V2.4H308.721L310.505 5.36L312.281 2.4H313.121Z" fill="#1C293E"/>
</g>
<path opacity="0.8" d="M6.57 28.07C5.87 28.7767 5.01333 29.13 4 29.13C2.98667 29.13 2.13 28.7767 1.43 28.07C0.73 27.3633 0.38 26.5067 0.38 25.5C0.38 24.4867 0.73 23.63 1.43 22.93C2.13 22.2233 2.98667 21.87 4 21.87C5.01333 21.87 5.87 22.2233 6.57 22.93C7.27667 23.63 7.63 24.4867 7.63 25.5C7.63 26.5067 7.27667 27.3633 6.57 28.07ZM2.07 27.44C2.59 27.96 3.23333 28.22 4 28.22C4.76667 28.22 5.40667 27.96 5.92 27.44C6.44 26.9133 6.7 26.2667 6.7 25.5C6.7 24.7267 6.44 24.08 5.92 23.56C5.40667 23.0333 4.76667 22.77 4 22.77C3.23333 22.77 2.59 23.0333 2.07 23.56C1.55667 24.08 1.3 24.7267 1.3 25.5C1.3 26.2667 1.55667 26.9133 2.07 27.44ZM12.778 22.88H9.67805V25.15H12.648V26.03H9.67805V29H8.74805V22H12.778V22.88ZM17.9343 22.88H14.8343V25.15H17.8043V26.03H14.8343V29H13.9043V22H17.9343V22.88Z" fill="#1C293E"/>
<path opacity="0.8" d="M321.14 28.14C320.667 28.8 320.003 29.13 319.15 29.13C318.297 29.13 317.633 28.8 317.16 28.14C316.687 27.48 316.45 26.6 316.45 25.5C316.45 24.4 316.687 23.52 317.16 22.86C317.633 22.2 318.297 21.87 319.15 21.87C320.003 21.87 320.667 22.2 321.14 22.86C321.613 23.52 321.85 24.4 321.85 25.5C321.85 26.6 321.613 27.48 321.14 28.14ZM317.84 27.51C318.147 27.9833 318.583 28.22 319.15 28.22C319.717 28.22 320.153 27.9833 320.46 27.51C320.773 27.0367 320.93 26.3667 320.93 25.5C320.93 24.6333 320.773 23.9633 320.46 23.49C320.153 23.01 319.717 22.77 319.15 22.77C318.583 22.77 318.147 23.0067 317.84 23.48C317.533 23.9533 317.38 24.6267 317.38 25.5C317.38 26.3667 317.533 27.0367 317.84 27.51ZM324.989 24.42C325.689 24.42 326.265 24.64 326.719 25.08C327.172 25.5133 327.399 26.0767 327.399 26.77C327.399 27.4633 327.172 28.03 326.719 28.47C326.265 28.91 325.689 29.13 324.989 29.13C324.282 29.13 323.702 28.91 323.249 28.47C322.802 28.03 322.579 27.4633 322.579 26.77C322.579 26.23 322.719 25.7633 322.999 25.37L325.249 22H326.309L324.659 24.44C324.805 24.4267 324.915 24.42 324.989 24.42ZM323.909 27.84C324.189 28.1067 324.549 28.24 324.989 28.24C325.429 28.24 325.785 28.1067 326.059 27.84C326.339 27.5667 326.479 27.21 326.479 26.77C326.479 26.33 326.339 25.9767 326.059 25.71C325.785 25.4433 325.429 25.31 324.989 25.31C324.542 25.31 324.182 25.4433 323.909 25.71C323.635 25.9767 323.499 26.33 323.499 26.77C323.499 27.21 323.635 27.5667 323.909 27.84ZM328.792 25.18C328.612 25.18 328.459 25.1167 328.332 24.99C328.205 24.8633 328.142 24.71 328.142 24.53C328.142 24.35 328.205 24.1967 328.332 24.07C328.459 23.9433 328.612 23.88 328.792 23.88C328.979 23.88 329.132 23.9433 329.252 24.07C329.379 24.1967 329.442 24.35 329.442 24.53C329.442 24.71 329.379 24.8633 329.252 24.99C329.132 25.1167 328.979 25.18 328.792 25.18ZM328.792 29.11C328.612 29.11 328.459 29.0467 328.332 28.92C328.205 28.7933 328.142 28.64 328.142 28.46C328.142 28.28 328.205 28.1267 328.332 28C328.459 27.8733 328.612 27.81 328.792 27.81C328.979 27.81 329.132 27.8733 329.252 28C329.379 28.1267 329.442 28.28 329.442 28.46C329.442 28.64 329.379 28.7933 329.252 28.92C329.132 29.0467 328.979 29.11 328.792 29.11ZM333.174 24.87C333.707 24.97 334.144 25.2 334.484 25.56C334.824 25.92 334.994 26.3767 334.994 26.93C334.994 27.61 334.76 28.1467 334.294 28.54C333.827 28.9333 333.26 29.13 332.594 29.13C332.06 29.13 331.587 29.01 331.174 28.77C330.76 28.5233 330.467 28.17 330.294 27.71L331.074 27.25C331.28 27.8967 331.787 28.22 332.594 28.22C333.027 28.22 333.38 28.1067 333.654 27.88C333.927 27.6533 334.064 27.3367 334.064 26.93C334.064 26.5233 333.927 26.2067 333.654 25.98C333.38 25.7467 333.027 25.63 332.594 25.63H332.354L331.984 25.06L333.604 22.87H330.494V22H334.694V22.82L333.174 24.87ZM340.505 28.14C340.032 28.8 339.369 29.13 338.515 29.13C337.662 29.13 336.999 28.8 336.525 28.14C336.052 27.48 335.815 26.6 335.815 25.5C335.815 24.4 336.052 23.52 336.525 22.86C336.999 22.2 337.662 21.87 338.515 21.87C339.369 21.87 340.032 22.2 340.505 22.86C340.979 23.52 341.215 24.4 341.215 25.5C341.215 26.6 340.979 27.48 340.505 28.14ZM337.205 27.51C337.512 27.9833 337.949 28.22 338.515 28.22C339.082 28.22 339.519 27.9833 339.825 27.51C340.139 27.0367 340.295 26.3667 340.295 25.5C340.295 24.6333 340.139 23.9633 339.825 23.49C339.519 23.01 339.082 22.77 338.515 22.77C337.949 22.77 337.512 23.0067 337.205 23.48C336.899 23.9533 336.745 24.6267 336.745 25.5C336.745 26.3667 336.899 27.0367 337.205 27.51Z" fill="#1C293E"/>
<path opacity="0.8" d="M8.01 51.13C7.35667 51.13 6.79667 50.9767 6.33 50.67C5.87 50.3633 5.54667 49.9433 5.36 49.41L6.16 48.95C6.43333 49.7967 7.05667 50.22 8.03 50.22C8.51 50.22 8.87667 50.1233 9.13 49.93C9.38333 49.73 9.51 49.4667 9.51 49.14C9.51 48.8067 9.38333 48.5567 9.13 48.39C8.87667 48.2233 8.45333 48.0467 7.86 47.86C7.56667 47.7667 7.34333 47.6933 7.19 47.64C7.03667 47.58 6.84333 47.4933 6.61 47.38C6.38333 47.26 6.21333 47.14 6.1 47.02C5.98667 46.8933 5.88333 46.73 5.79 46.53C5.70333 46.33 5.66 46.1033 5.66 45.85C5.66 45.2433 5.87333 44.7633 6.3 44.41C6.72667 44.05 7.24667 43.87 7.86 43.87C8.41333 43.87 8.89333 44.01 9.3 44.29C9.71333 44.57 10.0233 44.94 10.23 45.4L9.45 45.85C9.15 45.13 8.62 44.77 7.86 44.77C7.48 44.77 7.17333 44.8633 6.94 45.05C6.70667 45.2367 6.59 45.49 6.59 45.81C6.59 46.1167 6.7 46.35 6.92 46.51C7.14 46.67 7.52 46.8367 8.06 47.01C8.25333 47.07 8.39 47.1133 8.47 47.14C8.55 47.1667 8.67333 47.2133 8.84 47.28C9.01333 47.3467 9.14 47.4 9.22 47.44C9.3 47.48 9.40667 47.5367 9.54 47.61C9.68 47.6833 9.78333 47.7533 9.85 47.82C9.91667 47.8867 9.99333 47.97 10.08 48.07C10.1733 48.1633 10.24 48.26 10.28 48.36C10.32 48.46 10.3533 48.5767 10.38 48.71C10.4133 48.8367 10.43 48.9733 10.43 49.12C10.43 49.7333 10.2067 50.2233 9.76 50.59C9.31333 50.95 8.73 51.13 8.01 51.13ZM15.4824 47.37C15.8024 47.5233 16.0558 47.7433 16.2424 48.03C16.4358 48.3167 16.5324 48.6467 16.5324 49.02C16.5324 49.58 16.3358 50.05 15.9424 50.43C15.5491 50.81 15.0691 51 14.5024 51H11.4824V44H14.2824C14.8291 44 15.2924 44.1833 15.6724 44.55C16.0524 44.9167 16.2424 45.37 16.2424 45.91C16.2424 46.53 15.9891 47.0167 15.4824 47.37ZM14.2824 44.87H12.4124V47.01H14.2824C14.5758 47.01 14.8224 46.9067 15.0224 46.7C15.2224 46.4933 15.3224 46.24 15.3224 45.94C15.3224 45.6467 15.2191 45.3967 15.0124 45.19C14.8124 44.9767 14.5691 44.87 14.2824 44.87ZM14.5024 50.13C14.8158 50.13 15.0791 50.02 15.2924 49.8C15.5058 49.58 15.6124 49.31 15.6124 48.99C15.6124 48.6767 15.5024 48.41 15.2824 48.19C15.0691 47.97 14.8091 47.86 14.5024 47.86H12.4124V50.13H14.5024Z" fill="#1C293E"/>
<path opacity="0.8" d="M321.14 50.14C320.667 50.8 320.003 51.13 319.15 51.13C318.297 51.13 317.633 50.8 317.16 50.14C316.687 49.48 316.45 48.6 316.45 47.5C316.45 46.4 316.687 45.52 317.16 44.86C317.633 44.2 318.297 43.87 319.15 43.87C320.003 43.87 320.667 44.2 321.14 44.86C321.613 45.52 321.85 46.4 321.85 47.5C321.85 48.6 321.613 49.48 321.14 50.14ZM317.84 49.51C318.147 49.9833 318.583 50.22 319.15 50.22C319.717 50.22 320.153 49.9833 320.46 49.51C320.773 49.0367 320.93 48.3667 320.93 47.5C320.93 46.6333 320.773 45.9633 320.46 45.49C320.153 45.01 319.717 44.77 319.15 44.77C318.583 44.77 318.147 45.0067 317.84 45.48C317.533 45.9533 317.38 46.6267 317.38 47.5C317.38 48.3667 317.533 49.0367 317.84 49.51ZM325.224 46.87C325.758 46.97 326.194 47.2 326.534 47.56C326.874 47.92 327.044 48.3767 327.044 48.93C327.044 49.61 326.811 50.1467 326.344 50.54C325.878 50.9333 325.311 51.13 324.644 51.13C324.111 51.13 323.638 51.01 323.224 50.77C322.811 50.5233 322.518 50.17 322.344 49.71L323.124 49.25C323.331 49.8967 323.838 50.22 324.644 50.22C325.078 50.22 325.431 50.1067 325.704 49.88C325.978 49.6533 326.114 49.3367 326.114 48.93C326.114 48.5233 325.978 48.2067 325.704 47.98C325.431 47.7467 325.078 47.63 324.644 47.63H324.404L324.034 47.06L325.654 44.87H322.544V44H326.744V44.82L325.224 46.87ZM328.528 47.18C328.348 47.18 328.195 47.1167 328.068 46.99C327.942 46.8633 327.878 46.71 327.878 46.53C327.878 46.35 327.942 46.1967 328.068 46.07C328.195 45.9433 328.348 45.88 328.528 45.88C328.715 45.88 328.868 45.9433 328.988 46.07C329.115 46.1967 329.178 46.35 329.178 46.53C329.178 46.71 329.115 46.8633 328.988 46.99C328.868 47.1167 328.715 47.18 328.528 47.18ZM328.528 51.11C328.348 51.11 328.195 51.0467 328.068 50.92C327.942 50.7933 327.878 50.64 327.878 50.46C327.878 50.28 327.942 50.1267 328.068 50C328.195 49.8733 328.348 49.81 328.528 49.81C328.715 49.81 328.868 49.8733 328.988 50C329.115 50.1267 329.178 50.28 329.178 50.46C329.178 50.64 329.115 50.7933 328.988 50.92C328.868 51.0467 328.715 51.11 328.528 51.11ZM332.91 46.87C333.443 46.97 333.88 47.2 334.22 47.56C334.56 47.92 334.73 48.3767 334.73 48.93C334.73 49.61 334.497 50.1467 334.03 50.54C333.563 50.9333 332.997 51.13 332.33 51.13C331.797 51.13 331.323 51.01 330.91 50.77C330.497 50.5233 330.203 50.17 330.03 49.71L330.81 49.25C331.017 49.8967 331.523 50.22 332.33 50.22C332.763 50.22 333.117 50.1067 333.39 49.88C333.663 49.6533 333.8 49.3367 333.8 48.93C333.8 48.5233 333.663 48.2067 333.39 47.98C333.117 47.7467 332.763 47.63 332.33 47.63H332.09L331.72 47.06L333.34 44.87H330.23V44H334.43V44.82L332.91 46.87ZM340.242 50.14C339.768 50.8 339.105 51.13 338.252 51.13C337.398 51.13 336.735 50.8 336.262 50.14C335.788 49.48 335.552 48.6 335.552 47.5C335.552 46.4 335.788 45.52 336.262 44.86C336.735 44.2 337.398 43.87 338.252 43.87C339.105 43.87 339.768 44.2 340.242 44.86C340.715 45.52 340.952 46.4 340.952 47.5C340.952 48.6 340.715 49.48 340.242 50.14ZM336.942 49.51C337.248 49.9833 337.685 50.22 338.252 50.22C338.818 50.22 339.255 49.9833 339.562 49.51C339.875 49.0367 340.032 48.3667 340.032 47.5C340.032 46.6333 339.875 45.9633 339.562 45.49C339.255 45.01 338.818 44.77 338.252 44.77C337.685 44.77 337.248 45.0067 336.942 45.48C336.635 45.9533 336.482 46.6267 336.482 47.5C336.482 48.3667 336.635 49.0367 336.942 49.51Z" fill="#1C293E"/>
<path opacity="0.8" d="M13.48 66C14.4333 66 15.2233 66.34 15.85 67.02C16.4833 67.6933 16.8 68.52 16.8 69.5C16.8 70.48 16.4833 71.31 15.85 71.99C15.2233 72.6633 14.4333 73 13.48 73H10.75V66H13.48ZM13.48 72.12C14.1933 72.12 14.7767 71.87 15.23 71.37C15.6833 70.87 15.91 70.2467 15.91 69.5C15.91 68.7533 15.6833 68.13 15.23 67.63C14.7767 67.13 14.1933 66.88 13.48 66.88H11.68V72.12H13.48Z" fill="#1C293E"/>
<path opacity="0.8" d="M321.14 72.14C320.667 72.8 320.003 73.13 319.15 73.13C318.297 73.13 317.633 72.8 317.16 72.14C316.687 71.48 316.45 70.6 316.45 69.5C316.45 68.4 316.687 67.52 317.16 66.86C317.633 66.2 318.297 65.87 319.15 65.87C320.003 65.87 320.667 66.2 321.14 66.86C321.613 67.52 321.85 68.4 321.85 69.5C321.85 70.6 321.613 71.48 321.14 72.14ZM317.84 71.51C318.147 71.9833 318.583 72.22 319.15 72.22C319.717 72.22 320.153 71.9833 320.46 71.51C320.773 71.0367 320.93 70.3667 320.93 69.5C320.93 68.6333 320.773 67.9633 320.46 67.49C320.153 67.01 319.717 66.77 319.15 66.77C318.583 66.77 318.147 67.0067 317.84 67.48C317.533 67.9533 317.38 68.6267 317.38 69.5C317.38 70.3667 317.533 71.0367 317.84 71.51ZM322.532 73V72.24L325.002 69.72C325.662 69.06 325.992 68.4933 325.992 68.02C325.992 67.6267 325.872 67.32 325.632 67.1C325.392 66.88 325.099 66.77 324.752 66.77C324.092 66.77 323.612 67.0833 323.312 67.71L322.532 67.25C322.752 66.7967 323.055 66.4533 323.442 66.22C323.835 65.9867 324.269 65.87 324.742 65.87C325.329 65.87 325.839 66.0633 326.272 66.45C326.705 66.8367 326.922 67.3567 326.922 68.01C326.922 68.7167 326.505 69.4867 325.672 70.32L323.882 72.1H327.052V73H322.532ZM328.655 69.18C328.475 69.18 328.322 69.1167 328.195 68.99C328.069 68.8633 328.005 68.71 328.005 68.53C328.005 68.35 328.069 68.1967 328.195 68.07C328.322 67.9433 328.475 67.88 328.655 67.88C328.842 67.88 328.995 67.9433 329.115 68.07C329.242 68.1967 329.305 68.35 329.305 68.53C329.305 68.71 329.242 68.8633 329.115 68.99C328.995 69.1167 328.842 69.18 328.655 69.18ZM328.655 73.11C328.475 73.11 328.322 73.0467 328.195 72.92C328.069 72.7933 328.005 72.64 328.005 72.46C328.005 72.28 328.069 72.1267 328.195 72C328.322 71.8733 328.475 71.81 328.655 71.81C328.842 71.81 328.995 71.8733 329.115 72C329.242 72.1267 329.305 72.28 329.305 72.46C329.305 72.64 329.242 72.7933 329.115 72.92C328.995 73.0467 328.842 73.11 328.655 73.11ZM333.037 68.87C333.57 68.97 334.007 69.2 334.347 69.56C334.687 69.92 334.857 70.3767 334.857 70.93C334.857 71.61 334.624 72.1467 334.157 72.54C333.69 72.9333 333.124 73.13 332.457 73.13C331.924 73.13 331.45 73.01 331.037 72.77C330.624 72.5233 330.33 72.17 330.157 71.71L330.937 71.25C331.144 71.8967 331.65 72.22 332.457 72.22C332.89 72.22 333.244 72.1067 333.517 71.88C333.79 71.6533 333.927 71.3367 333.927 70.93C333.927 70.5233 333.79 70.2067 333.517 69.98C333.244 69.7467 332.89 69.63 332.457 69.63H332.217L331.847 69.06L333.467 66.87H330.357V66H334.557V66.82L333.037 68.87ZM340.369 72.14C339.895 72.8 339.232 73.13 338.379 73.13C337.525 73.13 336.862 72.8 336.389 72.14C335.915 71.48 335.679 70.6 335.679 69.5C335.679 68.4 335.915 67.52 336.389 66.86C336.862 66.2 337.525 65.87 338.379 65.87C339.232 65.87 339.895 66.2 340.369 66.86C340.842 67.52 341.079 68.4 341.079 69.5C341.079 70.6 340.842 71.48 340.369 72.14ZM337.069 71.51C337.375 71.9833 337.812 72.22 338.379 72.22C338.945 72.22 339.382 71.9833 339.689 71.51C340.002 71.0367 340.159 70.3667 340.159 69.5C340.159 68.6333 340.002 67.9633 339.689 67.49C339.382 67.01 338.945 66.77 338.379 66.77C337.812 66.77 337.375 67.0067 337.069 67.48C336.762 67.9533 336.609 68.6267 336.609 69.5C336.609 70.3667 336.762 71.0367 337.069 71.51Z" fill="#1C293E"/>
<path opacity="0.8" d="M9.57 94.07C8.87 94.7767 8.01333 95.13 7 95.13C5.98667 95.13 5.13 94.7767 4.43 94.07C3.73 93.3633 3.38 92.5067 3.38 91.5C3.38 90.4867 3.73 89.63 4.43 88.93C5.13 88.2233 5.98667 87.87 7 87.87C8.01333 87.87 8.87 88.2233 9.57 88.93C10.2767 89.63 10.63 90.4867 10.63 91.5C10.63 92.5067 10.2767 93.3633 9.57 94.07ZM5.07 93.44C5.59 93.96 6.23333 94.22 7 94.22C7.76667 94.22 8.40667 93.96 8.92 93.44C9.44 92.9133 9.7 92.2667 9.7 91.5C9.7 90.7267 9.44 90.08 8.92 89.56C8.40667 89.0333 7.76667 88.77 7 88.77C6.23333 88.77 5.59 89.0333 5.07 89.56C4.55667 90.08 4.3 90.7267 4.3 91.5C4.3 92.2667 4.55667 92.9133 5.07 93.44ZM16.098 88H17.028V95H16.278L12.678 89.77V95H11.748V88H12.498L16.098 93.22V88Z" fill="#1C293E"/>
<path opacity="0.8" d="M321.14 94.14C320.667 94.8 320.003 95.13 319.15 95.13C318.297 95.13 317.633 94.8 317.16 94.14C316.687 93.48 316.45 92.6 316.45 91.5C316.45 90.4 316.687 89.52 317.16 88.86C317.633 88.2 318.297 87.87 319.15 87.87C320.003 87.87 320.667 88.2 321.14 88.86C321.613 89.52 321.85 90.4 321.85 91.5C321.85 92.6 321.613 93.48 321.14 94.14ZM317.84 93.51C318.147 93.9833 318.583 94.22 319.15 94.22C319.717 94.22 320.153 93.9833 320.46 93.51C320.773 93.0367 320.93 92.3667 320.93 91.5C320.93 90.6333 320.773 89.9633 320.46 89.49C320.153 89.01 319.717 88.77 319.15 88.77C318.583 88.77 318.147 89.0067 317.84 89.48C317.533 89.9533 317.38 90.6267 317.38 91.5C317.38 92.3667 317.533 93.0367 317.84 93.51ZM324.97 90.73C325.63 90.73 326.186 90.9267 326.64 91.32C327.1 91.7067 327.33 92.2433 327.33 92.93C327.33 93.61 327.096 94.1467 326.63 94.54C326.163 94.9333 325.596 95.13 324.93 95.13C324.396 95.13 323.92 95.0033 323.5 94.75C323.08 94.49 322.786 94.1167 322.62 93.63L323.41 93.18C323.503 93.52 323.683 93.78 323.95 93.96C324.216 94.1333 324.543 94.22 324.93 94.22C325.37 94.22 325.726 94.1067 326 93.88C326.273 93.6533 326.41 93.3367 326.41 92.93C326.41 92.5233 326.273 92.2067 326 91.98C325.726 91.7467 325.376 91.63 324.95 91.63H322.97L323.23 88H327.06V88.87H324.07L323.95 90.73H324.97ZM328.714 91.18C328.534 91.18 328.381 91.1167 328.254 90.99C328.127 90.8633 328.064 90.71 328.064 90.53C328.064 90.35 328.127 90.1967 328.254 90.07C328.381 89.9433 328.534 89.88 328.714 89.88C328.901 89.88 329.054 89.9433 329.174 90.07C329.301 90.1967 329.364 90.35 329.364 90.53C329.364 90.71 329.301 90.8633 329.174 90.99C329.054 91.1167 328.901 91.18 328.714 91.18ZM328.714 95.11C328.534 95.11 328.381 95.0467 328.254 94.92C328.127 94.7933 328.064 94.64 328.064 94.46C328.064 94.28 328.127 94.1267 328.254 94C328.381 93.8733 328.534 93.81 328.714 93.81C328.901 93.81 329.054 93.8733 329.174 94C329.301 94.1267 329.364 94.28 329.364 94.46C329.364 94.64 329.301 94.7933 329.174 94.92C329.054 95.0467 328.901 95.11 328.714 95.11ZM333.096 90.87C333.629 90.97 334.066 91.2 334.406 91.56C334.746 91.92 334.916 92.3767 334.916 92.93C334.916 93.61 334.682 94.1467 334.216 94.54C333.749 94.9333 333.182 95.13 332.516 95.13C331.982 95.13 331.509 95.01 331.096 94.77C330.682 94.5233 330.389 94.17 330.216 93.71L330.996 93.25C331.202 93.8967 331.709 94.22 332.516 94.22C332.949 94.22 333.302 94.1067 333.576 93.88C333.849 93.6533 333.986 93.3367 333.986 92.93C333.986 92.5233 333.849 92.2067 333.576 91.98C333.302 91.7467 332.949 91.63 332.516 91.63H332.276L331.906 91.06L333.526 88.87H330.416V88H334.616V88.82L333.096 90.87ZM340.427 94.14C339.954 94.8 339.29 95.13 338.437 95.13C337.584 95.13 336.92 94.8 336.447 94.14C335.974 93.48 335.737 92.6 335.737 91.5C335.737 90.4 335.974 89.52 336.447 88.86C336.92 88.2 337.584 87.87 338.437 87.87C339.29 87.87 339.954 88.2 340.427 88.86C340.9 89.52 341.137 90.4 341.137 91.5C341.137 92.6 340.9 93.48 340.427 94.14ZM337.127 93.51C337.434 93.9833 337.87 94.22 338.437 94.22C339.004 94.22 339.44 93.9833 339.747 93.51C340.06 93.0367 340.217 92.3667 340.217 91.5C340.217 90.6333 340.06 89.9633 339.747 89.49C339.44 89.01 339.004 88.77 338.437 88.77C337.87 88.77 337.434 89.0067 337.127 89.48C336.82 89.9533 336.667 90.6267 336.667 91.5C336.667 92.3667 336.82 93.0367 337.127 93.51Z" fill="#1C293E"/>
<g opacity="0.2">
<line x1="22" y1="36.5" x2="311" y2="36.5" stroke="#1C293E"/>
<line x1="22" y1="58.5" x2="311" y2="58.5" stroke="#1C293E"/>
<line x1="22" y1="80.5" x2="311" y2="80.5" stroke="#1C293E"/>
<line x1="22" y1="102.5" x2="311" y2="102.5" stroke="#1C293E"/>
<line x1="22.5" y1="103" x2="22.5" y2="14" stroke="#1C293E"/>
<line x1="34.5" y1="103" x2="34.5" y2="14" stroke="#1C293E"/>
<line x1="46.5" y1="103" x2="46.5" y2="14" stroke="#1C293E"/>
<line x1="58.5" y1="103" x2="58.5" y2="14" stroke="#1C293E"/>
<line x1="70.5" y1="103" x2="70.5" y2="14" stroke="#1C293E"/>
<line x1="82.5" y1="103" x2="82.5" y2="14" stroke="#1C293E"/>
<line x1="94.5" y1="103" x2="94.5" y2="14" stroke="#1C293E"/>
<line x1="106.5" y1="103" x2="106.5" y2="14" stroke="#1C293E"/>
<line x1="118.5" y1="103" x2="118.5" y2="14" stroke="#1C293E"/>
<line x1="130.5" y1="103" x2="130.5" y2="14" stroke="#1C293E"/>
<line x1="142.5" y1="103" x2="142.5" y2="14" stroke="#1C293E"/>
<line x1="154.5" y1="103" x2="154.5" y2="14" stroke="#1C293E"/>
<line x1="166.5" y1="103" x2="166.5" y2="14" stroke="#1C293E"/>
<line x1="178.5" y1="103" x2="178.5" y2="14" stroke="#1C293E"/>
<line x1="190.5" y1="103" x2="190.5" y2="14" stroke="#1C293E"/>
<line x1="202.5" y1="103" x2="202.5" y2="14" stroke="#1C293E"/>
<line x1="214.5" y1="103" x2="214.5" y2="14" stroke="#1C293E"/>
<line x1="226.5" y1="103" x2="226.5" y2="14" stroke="#1C293E"/>
<line x1="238.5" y1="103" x2="238.5" y2="14" stroke="#1C293E"/>
<line x1="250.5" y1="103" x2="250.5" y2="14" stroke="#1C293E"/>
<line x1="262.5" y1="103" x2="262.5" y2="14" stroke="#1C293E"/>
<line x1="274.5" y1="103" x2="274.5" y2="14" stroke="#1C293E"/>
<line x1="286.5" y1="103" x2="286.5" y2="14" stroke="#1C293E"/>
<line x1="298.5" y1="103" x2="298.5" y2="14" stroke="#1C293E"/>
<line x1="310.5" y1="103" x2="310.5" y2="14" stroke="#1C293E"/>
<line x1="22" y1="14.5" x2="311" y2="14.5" stroke="#1C293E"/>
<line x1="28.5" y1="26" x2="28.5" y2="36" stroke="#1C293E"/>
<line x1="40.5" y1="26" x2="40.5" y2="36" stroke="#1C293E"/>
<line x1="52.5" y1="26" x2="52.5" y2="36" stroke="#1C293E"/>
<line x1="64.5" y1="26" x2="64.5" y2="36" stroke="#1C293E"/>
<line x1="76.5" y1="26" x2="76.5" y2="36" stroke="#1C293E"/>
<line x1="88.5" y1="26" x2="88.5" y2="36" stroke="#1C293E"/>
<line x1="100.5" y1="26" x2="100.5" y2="36" stroke="#1C293E"/>
<line x1="112.5" y1="26" x2="112.5" y2="36" stroke="#1C293E"/>
<line x1="124.5" y1="26" x2="124.5" y2="36" stroke="#1C293E"/>
<line x1="136.5" y1="26" x2="136.5" y2="36" stroke="#1C293E"/>
<line x1="148.5" y1="26" x2="148.5" y2="36" stroke="#1C293E"/>
<line x1="160.5" y1="26" x2="160.5" y2="36" stroke="#1C293E"/>
<line x1="172.5" y1="26" x2="172.5" y2="36" stroke="#1C293E"/>
<line x1="184.5" y1="26" x2="184.5" y2="36" stroke="#1C293E"/>
<line x1="196.5" y1="26" x2="196.5" y2="36" stroke="#1C293E"/>
<line x1="208.5" y1="26" x2="208.5" y2="36" stroke="#1C293E"/>
<line x1="220.5" y1="26" x2="220.5" y2="36" stroke="#1C293E"/>
<line x1="232.5" y1="26" x2="232.5" y2="36" stroke="#1C293E"/>
<line x1="244.5" y1="26" x2="244.5" y2="36" stroke="#1C293E"/>
<line x1="256.5" y1="26" x2="256.5" y2="36" stroke="#1C293E"/>
<line x1="268.5" y1="26" x2="268.5" y2="36" stroke="#1C293E"/>
<line x1="280.5" y1="26" x2="280.5" y2="36" stroke="#1C293E"/>
<line x1="292.5" y1="26" x2="292.5" y2="36" stroke="#1C293E"/>
<line x1="304.5" y1="26" x2="304.5" y2="36" stroke="#1C293E"/>
<line x1="25.5" y1="31" x2="25.5" y2="36" stroke="#1C293E"/>
<line x1="37.5" y1="31" x2="37.5" y2="36" stroke="#1C293E"/>
<line x1="49.5" y1="31" x2="49.5" y2="36" stroke="#1C293E"/>
<line x1="61.5" y1="31" x2="61.5" y2="36" stroke="#1C293E"/>
<line x1="73.5" y1="31" x2="73.5" y2="36" stroke="#1C293E"/>
<line x1="85.5" y1="31" x2="85.5" y2="36" stroke="#1C293E"/>
<line x1="97.5" y1="31" x2="97.5" y2="36" stroke="#1C293E"/>
<line x1="109.5" y1="31" x2="109.5" y2="36" stroke="#1C293E"/>
<line x1="121.5" y1="31" x2="121.5" y2="36" stroke="#1C293E"/>
<line x1="133.5" y1="31" x2="133.5" y2="36" stroke="#1C293E"/>
<line x1="145.5" y1="31" x2="145.5" y2="36" stroke="#1C293E"/>
<line x1="157.5" y1="31" x2="157.5" y2="36" stroke="#1C293E"/>
<line x1="169.5" y1="31" x2="169.5" y2="36" stroke="#1C293E"/>
<line x1="181.5" y1="31" x2="181.5" y2="36" stroke="#1C293E"/>
<line x1="193.5" y1="31" x2="193.5" y2="36" stroke="#1C293E"/>
<line x1="205.5" y1="31" x2="205.5" y2="36" stroke="#1C293E"/>
<line x1="217.5" y1="31" x2="217.5" y2="36" stroke="#1C293E"/>
<line x1="229.5" y1="31" x2="229.5" y2="36" stroke="#1C293E"/>
<line x1="241.5" y1="31" x2="241.5" y2="36" stroke="#1C293E"/>
<line x1="253.5" y1="31" x2="253.5" y2="36" stroke="#1C293E"/>
<line x1="265.5" y1="31" x2="265.5" y2="36" stroke="#1C293E"/>
<line x1="277.5" y1="31" x2="277.5" y2="36" stroke="#1C293E"/>
<line x1="289.5" y1="31" x2="289.5" y2="36" stroke="#1C293E"/>
<line x1="301.5" y1="31" x2="301.5" y2="36" stroke="#1C293E"/>
<line x1="25.5" y1="53" x2="25.5" y2="58" stroke="#1C293E"/>
<line x1="37.5" y1="53" x2="37.5" y2="58" stroke="#1C293E"/>
<line x1="49.5" y1="53" x2="49.5" y2="58" stroke="#1C293E"/>
<line x1="61.5" y1="53" x2="61.5" y2="58" stroke="#1C293E"/>
<line x1="73.5" y1="53" x2="73.5" y2="58" stroke="#1C293E"/>
<line x1="85.5" y1="53" x2="85.5" y2="58" stroke="#1C293E"/>
<line x1="97.5" y1="53" x2="97.5" y2="58" stroke="#1C293E"/>
<line x1="109.5" y1="53" x2="109.5" y2="58" stroke="#1C293E"/>
<line x1="121.5" y1="53" x2="121.5" y2="58" stroke="#1C293E"/>
<line x1="133.5" y1="53" x2="133.5" y2="58" stroke="#1C293E"/>
<line x1="145.5" y1="53" x2="145.5" y2="58" stroke="#1C293E"/>
<line x1="157.5" y1="53" x2="157.5" y2="58" stroke="#1C293E"/>
<line x1="169.5" y1="53" x2="169.5" y2="58" stroke="#1C293E"/>
<line x1="181.5" y1="53" x2="181.5" y2="58" stroke="#1C293E"/>
<line x1="193.5" y1="53" x2="193.5" y2="58" stroke="#1C293E"/>
<line x1="205.5" y1="53" x2="205.5" y2="58" stroke="#1C293E"/>
<line x1="217.5" y1="53" x2="217.5" y2="58" stroke="#1C293E"/>
<line x1="229.5" y1="53" x2="229.5" y2="58" stroke="#1C293E"/>
<line x1="241.5" y1="53" x2="241.5" y2="58" stroke="#1C293E"/>
<line x1="253.5" y1="53" x2="253.5" y2="58" stroke="#1C293E"/>
<line x1="265.5" y1="53" x2="265.5" y2="58" stroke="#1C293E"/>
<line x1="277.5" y1="53" x2="277.5" y2="58" stroke="#1C293E"/>
<line x1="289.5" y1="53" x2="289.5" y2="58" stroke="#1C293E"/>
<line x1="301.5" y1="53" x2="301.5" y2="58" stroke="#1C293E"/>
<line x1="25.5" y1="75" x2="25.5" y2="80" stroke="#1C293E"/>
<line x1="37.5" y1="75" x2="37.5" y2="80" stroke="#1C293E"/>
<line x1="49.5" y1="75" x2="49.5" y2="80" stroke="#1C293E"/>
<line x1="61.5" y1="75" x2="61.5" y2="80" stroke="#1C293E"/>
<line x1="73.5" y1="75" x2="73.5" y2="80" stroke="#1C293E"/>
<line x1="85.5" y1="75" x2="85.5" y2="80" stroke="#1C293E"/>
<line x1="97.5" y1="75" x2="97.5" y2="80" stroke="#1C293E"/>
<line x1="109.5" y1="75" x2="109.5" y2="80" stroke="#1C293E"/>
<line x1="121.5" y1="75" x2="121.5" y2="80" stroke="#1C293E"/>
<line x1="133.5" y1="75" x2="133.5" y2="80" stroke="#1C293E"/>
<line x1="145.5" y1="75" x2="145.5" y2="80" stroke="#1C293E"/>
<line x1="157.5" y1="75" x2="157.5" y2="80" stroke="#1C293E"/>
<line x1="169.5" y1="75" x2="169.5" y2="80" stroke="#1C293E"/>
<line x1="181.5" y1="75" x2="181.5" y2="80" stroke="#1C293E"/>
<line x1="193.5" y1="75" x2="193.5" y2="80" stroke="#1C293E"/>
<line x1="205.5" y1="75" x2="205.5" y2="80" stroke="#1C293E"/>
<line x1="217.5" y1="75" x2="217.5" y2="80" stroke="#1C293E"/>
<line x1="229.5" y1="75" x2="229.5" y2="80" stroke="#1C293E"/>
<line x1="241.5" y1="75" x2="241.5" y2="80" stroke="#1C293E"/>
<line x1="253.5" y1="75" x2="253.5" y2="80" stroke="#1C293E"/>
<line x1="265.5" y1="75" x2="265.5" y2="80" stroke="#1C293E"/>
<line x1="277.5" y1="75" x2="277.5" y2="80" stroke="#1C293E"/>
<line x1="289.5" y1="75" x2="289.5" y2="80" stroke="#1C293E"/>
<line x1="301.5" y1="75" x2="301.5" y2="80" stroke="#1C293E"/>
<line x1="25.5" y1="97" x2="25.5" y2="102" stroke="#1C293E"/>
<line x1="37.5" y1="97" x2="37.5" y2="102" stroke="#1C293E"/>
<line x1="49.5" y1="97" x2="49.5" y2="102" stroke="#1C293E"/>
<line x1="61.5" y1="97" x2="61.5" y2="102" stroke="#1C293E"/>
<line x1="73.5" y1="97" x2="73.5" y2="102" stroke="#1C293E"/>
<line x1="85.5" y1="97" x2="85.5" y2="102" stroke="#1C293E"/>
<line x1="97.5" y1="97" x2="97.5" y2="102" stroke="#1C293E"/>
<line x1="109.5" y1="97" x2="109.5" y2="102" stroke="#1C293E"/>
<line x1="121.5" y1="97" x2="121.5" y2="102" stroke="#1C293E"/>
<line x1="133.5" y1="97" x2="133.5" y2="102" stroke="#1C293E"/>
<line x1="145.5" y1="97" x2="145.5" y2="102" stroke="#1C293E"/>
<line x1="157.5" y1="97" x2="157.5" y2="102" stroke="#1C293E"/>
<line x1="169.5" y1="97" x2="169.5" y2="102" stroke="#1C293E"/>
<line x1="181.5" y1="97" x2="181.5" y2="102" stroke="#1C293E"/>
<line x1="193.5" y1="97" x2="193.5" y2="102" stroke="#1C293E"/>
<line x1="205.5" y1="97" x2="205.5" y2="102" stroke="#1C293E"/>
<line x1="217.5" y1="97" x2="217.5" y2="102" stroke="#1C293E"/>
<line x1="229.5" y1="97" x2="229.5" y2="102" stroke="#1C293E"/>
<line x1="241.5" y1="97" x2="241.5" y2="102" stroke="#1C293E"/>
<line x1="253.5" y1="97" x2="253.5" y2="102" stroke="#1C293E"/>
<line x1="265.5" y1="97" x2="265.5" y2="102" stroke="#1C293E"/>
<line x1="277.5" y1="97" x2="277.5" y2="102" stroke="#1C293E"/>
<line x1="289.5" y1="97" x2="289.5" y2="102" stroke="#1C293E"/>
<line x1="301.5" y1="97" x2="301.5" y2="102" stroke="#1C293E"/>
<line x1="31.5" y1="31" x2="31.5" y2="36" stroke="#1C293E"/>
<line x1="43.5" y1="31" x2="43.5" y2="36" stroke="#1C293E"/>
<line x1="55.5" y1="31" x2="55.5" y2="36" stroke="#1C293E"/>
<line x1="67.5" y1="31" x2="67.5" y2="36" stroke="#1C293E"/>
<line x1="79.5" y1="31" x2="79.5" y2="36" stroke="#1C293E"/>
<line x1="91.5" y1="31" x2="91.5" y2="36" stroke="#1C293E"/>
<line x1="103.5" y1="31" x2="103.5" y2="36" stroke="#1C293E"/>
<line x1="115.5" y1="31" x2="115.5" y2="36" stroke="#1C293E"/>
<line x1="127.5" y1="31" x2="127.5" y2="36" stroke="#1C293E"/>
<line x1="139.5" y1="31" x2="139.5" y2="36" stroke="#1C293E"/>
<line x1="151.5" y1="31" x2="151.5" y2="36" stroke="#1C293E"/>
<line x1="163.5" y1="31" x2="163.5" y2="36" stroke="#1C293E"/>
<line x1="175.5" y1="31" x2="175.5" y2="36" stroke="#1C293E"/>
<line x1="187.5" y1="31" x2="187.5" y2="36" stroke="#1C293E"/>
<line x1="199.5" y1="31" x2="199.5" y2="36" stroke="#1C293E"/>
<line x1="211.5" y1="31" x2="211.5" y2="36" stroke="#1C293E"/>
<line x1="223.5" y1="31" x2="223.5" y2="36" stroke="#1C293E"/>
<line x1="235.5" y1="31" x2="235.5" y2="36" stroke="#1C293E"/>
<line x1="247.5" y1="31" x2="247.5" y2="36" stroke="#1C293E"/>
<line x1="259.5" y1="31" x2="259.5" y2="36" stroke="#1C293E"/>
<line x1="271.5" y1="31" x2="271.5" y2="36" stroke="#1C293E"/>
<line x1="283.5" y1="31" x2="283.5" y2="36" stroke="#1C293E"/>
<line x1="295.5" y1="31" x2="295.5" y2="36" stroke="#1C293E"/>
<line x1="307.5" y1="31" x2="307.5" y2="36" stroke="#1C293E"/>
<line x1="31.5" y1="53" x2="31.5" y2="58" stroke="#1C293E"/>
<line x1="43.5" y1="53" x2="43.5" y2="58" stroke="#1C293E"/>
<line x1="55.5" y1="53" x2="55.5" y2="58" stroke="#1C293E"/>
<line x1="67.5" y1="53" x2="67.5" y2="58" stroke="#1C293E"/>
<line x1="79.5" y1="53" x2="79.5" y2="58" stroke="#1C293E"/>
<line x1="91.5" y1="53" x2="91.5" y2="58" stroke="#1C293E"/>
<line x1="103.5" y1="53" x2="103.5" y2="58" stroke="#1C293E"/>
<line x1="115.5" y1="53" x2="115.5" y2="58" stroke="#1C293E"/>
<line x1="127.5" y1="53" x2="127.5" y2="58" stroke="#1C293E"/>
<line x1="139.5" y1="53" x2="139.5" y2="58" stroke="#1C293E"/>
<line x1="151.5" y1="53" x2="151.5" y2="58" stroke="#1C293E"/>
<line x1="163.5" y1="53" x2="163.5" y2="58" stroke="#1C293E"/>
<line x1="175.5" y1="53" x2="175.5" y2="58" stroke="#1C293E"/>
<line x1="187.5" y1="53" x2="187.5" y2="58" stroke="#1C293E"/>
<line x1="199.5" y1="53" x2="199.5" y2="58" stroke="#1C293E"/>
<line x1="211.5" y1="53" x2="211.5" y2="58" stroke="#1C293E"/>
<line x1="223.5" y1="53" x2="223.5" y2="58" stroke="#1C293E"/>
<line x1="235.5" y1="53" x2="235.5" y2="58" stroke="#1C293E"/>
<line x1="247.5" y1="53" x2="247.5" y2="58" stroke="#1C293E"/>
<line x1="259.5" y1="53" x2="259.5" y2="58" stroke="#1C293E"/>
<line x1="271.5" y1="53" x2="271.5" y2="58" stroke="#1C293E"/>
<line x1="283.5" y1="53" x2="283.5" y2="58" stroke="#1C293E"/>
<line x1="295.5" y1="53" x2="295.5" y2="58" stroke="#1C293E"/>
<line x1="307.5" y1="53" x2="307.5" y2="58" stroke="#1C293E"/>
<line x1="31.5" y1="75" x2="31.5" y2="80" stroke="#1C293E"/>
<line x1="43.5" y1="75" x2="43.5" y2="80" stroke="#1C293E"/>
<line x1="55.5" y1="75" x2="55.5" y2="80" stroke="#1C293E"/>
<line x1="67.5" y1="75" x2="67.5" y2="80" stroke="#1C293E"/>
<line x1="79.5" y1="75" x2="79.5" y2="80" stroke="#1C293E"/>
<line x1="91.5" y1="75" x2="91.5" y2="80" stroke="#1C293E"/>
<line x1="103.5" y1="75" x2="103.5" y2="80" stroke="#1C293E"/>
<line x1="115.5" y1="75" x2="115.5" y2="80" stroke="#1C293E"/>
<line x1="127.5" y1="75" x2="127.5" y2="80" stroke="#1C293E"/>
<line x1="139.5" y1="75" x2="139.5" y2="80" stroke="#1C293E"/>
<line x1="151.5" y1="75" x2="151.5" y2="80" stroke="#1C293E"/>
<line x1="163.5" y1="75" x2="163.5" y2="80" stroke="#1C293E"/>
<line x1="175.5" y1="75" x2="175.5" y2="80" stroke="#1C293E"/>
<line x1="187.5" y1="75" x2="187.5" y2="80" stroke="#1C293E"/>
<line x1="199.5" y1="75" x2="199.5" y2="80" stroke="#1C293E"/>
<line x1="211.5" y1="75" x2="211.5" y2="80" stroke="#1C293E"/>
<line x1="223.5" y1="75" x2="223.5" y2="80" stroke="#1C293E"/>
<line x1="235.5" y1="75" x2="235.5" y2="80" stroke="#1C293E"/>
<line x1="247.5" y1="75" x2="247.5" y2="80" stroke="#1C293E"/>
<line x1="259.5" y1="75" x2="259.5" y2="80" stroke="#1C293E"/>
<line x1="271.5" y1="75" x2="271.5" y2="80" stroke="#1C293E"/>
<line x1="283.5" y1="75" x2="283.5" y2="80" stroke="#1C293E"/>
<line x1="295.5" y1="75" x2="295.5" y2="80" stroke="#1C293E"/>
<line x1="307.5" y1="75" x2="307.5" y2="80" stroke="#1C293E"/>
<line x1="31.5" y1="97" x2="31.5" y2="102" stroke="#1C293E"/>
<line x1="43.5" y1="97" x2="43.5" y2="102" stroke="#1C293E"/>
<line x1="55.5" y1="97" x2="55.5" y2="102" stroke="#1C293E"/>
<line x1="67.5" y1="97" x2="67.5" y2="102" stroke="#1C293E"/>
<line x1="79.5" y1="97" x2="79.5" y2="102" stroke="#1C293E"/>
<line x1="91.5" y1="97" x2="91.5" y2="102" stroke="#1C293E"/>
<line x1="103.5" y1="97" x2="103.5" y2="102" stroke="#1C293E"/>
<line x1="115.5" y1="97" x2="115.5" y2="102" stroke="#1C293E"/>
<line x1="127.5" y1="97" x2="127.5" y2="102" stroke="#1C293E"/>
<line x1="139.5" y1="97" x2="139.5" y2="102" stroke="#1C293E"/>
<line x1="151.5" y1="97" x2="151.5" y2="102" stroke="#1C293E"/>
<line x1="163.5" y1="97" x2="163.5" y2="102" stroke="#1C293E"/>
<line x1="175.5" y1="97" x2="175.5" y2="102" stroke="#1C293E"/>
<line x1="187.5" y1="97" x2="187.5" y2="102" stroke="#1C293E"/>
<line x1="199.5" y1="97" x2="199.5" y2="102" stroke="#1C293E"/>
<line x1="211.5" y1="97" x2="211.5" y2="102" stroke="#1C293E"/>
<line x1="223.5" y1="97" x2="223.5" y2="102" stroke="#1C293E"/>
<line x1="235.5" y1="97" x2="235.5" y2="102" stroke="#1C293E"/>
<line x1="247.5" y1="97" x2="247.5" y2="102" stroke="#1C293E"/>
<line x1="259.5" y1="97" x2="259.5" y2="102" stroke="#1C293E"/>
<line x1="271.5" y1="97" x2="271.5" y2="102" stroke="#1C293E"/>
<line x1="283.5" y1="97" x2="283.5" y2="102" stroke="#1C293E"/>
<line x1="295.5" y1="97" x2="295.5" y2="102" stroke="#1C293E"/>
<line x1="307.5" y1="97" x2="307.5" y2="102" stroke="#1C293E"/>
<line x1="28.5" y1="48" x2="28.5" y2="58" stroke="#1C293E"/>
<line x1="40.5" y1="48" x2="40.5" y2="58" stroke="#1C293E"/>
<line x1="52.5" y1="48" x2="52.5" y2="58" stroke="#1C293E"/>
<line x1="64.5" y1="48" x2="64.5" y2="58" stroke="#1C293E"/>
<line x1="76.5" y1="48" x2="76.5" y2="58" stroke="#1C293E"/>
<line x1="88.5" y1="48" x2="88.5" y2="58" stroke="#1C293E"/>
<line x1="100.5" y1="48" x2="100.5" y2="58" stroke="#1C293E"/>
<line x1="112.5" y1="48" x2="112.5" y2="58" stroke="#1C293E"/>
<line x1="124.5" y1="48" x2="124.5" y2="58" stroke="#1C293E"/>
<line x1="136.5" y1="48" x2="136.5" y2="58" stroke="#1C293E"/>
<line x1="148.5" y1="48" x2="148.5" y2="58" stroke="#1C293E"/>
<line x1="160.5" y1="48" x2="160.5" y2="58" stroke="#1C293E"/>
<line x1="172.5" y1="48" x2="172.5" y2="58" stroke="#1C293E"/>
<line x1="184.5" y1="48" x2="184.5" y2="58" stroke="#1C293E"/>
<line x1="196.5" y1="48" x2="196.5" y2="58" stroke="#1C293E"/>
<line x1="208.5" y1="48" x2="208.5" y2="58" stroke="#1C293E"/>
<line x1="220.5" y1="48" x2="220.5" y2="58" stroke="#1C293E"/>
<line x1="232.5" y1="48" x2="232.5" y2="58" stroke="#1C293E"/>
<line x1="244.5" y1="48" x2="244.5" y2="58" stroke="#1C293E"/>
<line x1="256.5" y1="48" x2="256.5" y2="58" stroke="#1C293E"/>
<line x1="268.5" y1="48" x2="268.5" y2="58" stroke="#1C293E"/>
<line x1="280.5" y1="48" x2="280.5" y2="58" stroke="#1C293E"/>
<line x1="292.5" y1="48" x2="292.5" y2="58" stroke="#1C293E"/>
<line x1="304.5" y1="48" x2="304.5" y2="58" stroke="#1C293E"/>
<line x1="28.5" y1="70" x2="28.5" y2="80" stroke="#1C293E"/>
<line x1="40.5" y1="70" x2="40.5" y2="80" stroke="#1C293E"/>
<line x1="52.5" y1="70" x2="52.5" y2="80" stroke="#1C293E"/>
<line x1="64.5" y1="70" x2="64.5" y2="80" stroke="#1C293E"/>
<line x1="76.5" y1="70" x2="76.5" y2="80" stroke="#1C293E"/>
<line x1="88.5" y1="70" x2="88.5" y2="80" stroke="#1C293E"/>
<line x1="100.5" y1="70" x2="100.5" y2="80" stroke="#1C293E"/>
<line x1="112.5" y1="70" x2="112.5" y2="80" stroke="#1C293E"/>
<line x1="124.5" y1="70" x2="124.5" y2="80" stroke="#1C293E"/>
<line x1="136.5" y1="70" x2="136.5" y2="80" stroke="#1C293E"/>
<line x1="148.5" y1="70" x2="148.5" y2="80" stroke="#1C293E"/>
<line x1="160.5" y1="70" x2="160.5" y2="80" stroke="#1C293E"/>
<line x1="172.5" y1="70" x2="172.5" y2="80" stroke="#1C293E"/>
<line x1="184.5" y1="70" x2="184.5" y2="80" stroke="#1C293E"/>
<line x1="196.5" y1="70" x2="196.5" y2="80" stroke="#1C293E"/>
<line x1="208.5" y1="70" x2="208.5" y2="80" stroke="#1C293E"/>
<line x1="220.5" y1="70" x2="220.5" y2="80" stroke="#1C293E"/>
<line x1="232.5" y1="70" x2="232.5" y2="80" stroke="#1C293E"/>
<line x1="244.5" y1="70" x2="244.5" y2="80" stroke="#1C293E"/>
<line x1="256.5" y1="70" x2="256.5" y2="80" stroke="#1C293E"/>
<line x1="268.5" y1="70" x2="268.5" y2="80" stroke="#1C293E"/>
<line x1="280.5" y1="70" x2="280.5" y2="80" stroke="#1C293E"/>
<line x1="292.5" y1="70" x2="292.5" y2="80" stroke="#1C293E"/>
<line x1="304.5" y1="70" x2="304.5" y2="80" stroke="#1C293E"/>
<line x1="28.5" y1="92" x2="28.5" y2="102" stroke="#1C293E"/>
<line x1="40.5" y1="92" x2="40.5" y2="102" stroke="#1C293E"/>
<line x1="52.5" y1="92" x2="52.5" y2="102" stroke="#1C293E"/>
<line x1="64.5" y1="92" x2="64.5" y2="102" stroke="#1C293E"/>
<line x1="76.5" y1="92" x2="76.5" y2="102" stroke="#1C293E"/>
<line x1="88.5" y1="92" x2="88.5" y2="102" stroke="#1C293E"/>
<line x1="100.5" y1="92" x2="100.5" y2="102" stroke="#1C293E"/>
<line x1="112.5" y1="92" x2="112.5" y2="102" stroke="#1C293E"/>
<line x1="124.5" y1="92" x2="124.5" y2="102" stroke="#1C293E"/>
<line x1="136.5" y1="92" x2="136.5" y2="102" stroke="#1C293E"/>
<line x1="148.5" y1="92" x2="148.5" y2="102" stroke="#1C293E"/>
<line x1="160.5" y1="92" x2="160.5" y2="102" stroke="#1C293E"/>
<line x1="172.5" y1="92" x2="172.5" y2="102" stroke="#1C293E"/>
<line x1="184.5" y1="92" x2="184.5" y2="102" stroke="#1C293E"/>
<line x1="196.5" y1="92" x2="196.5" y2="102" stroke="#1C293E"/>
<line x1="208.5" y1="92" x2="208.5" y2="102" stroke="#1C293E"/>
<line x1="220.5" y1="92" x2="220.5" y2="102" stroke="#1C293E"/>
<line x1="232.5" y1="92" x2="232.5" y2="102" stroke="#1C293E"/>
<line x1="244.5" y1="92" x2="244.5" y2="102" stroke="#1C293E"/>
<line x1="256.5" y1="92" x2="256.5" y2="102" stroke="#1C293E"/>
<line x1="268.5" y1="92" x2="268.5" y2="102" stroke="#1C293E"/>
<line x1="280.5" y1="92" x2="280.5" y2="102" stroke="#1C293E"/>
<line x1="292.5" y1="92" x2="292.5" y2="102" stroke="#1C293E"/>
<line x1="304.5" y1="92" x2="304.5" y2="102" stroke="#1C293E"/>
</g>
<path d="M24 26L65 26" stroke="#75869C" stroke-width="2" stroke-linecap="square"/>
<path d="M65 70L85 70" stroke="#41B631" stroke-width="2" stroke-linecap="square"/>
<path d="M163 70H256" stroke="#41B631" stroke-width="2" stroke-linecap="square"/>
<path d="M101 91L163 91" stroke="#1872F6" stroke-width="2" stroke-linecap="square"/>
<path d="M65 68L65 28" stroke="#D2D4D8" stroke-width="2" stroke-linecap="square"/>
<path d="M101 89L101 49" stroke="#D2D4D8" stroke-width="2" stroke-linecap="square"/>
<path d="M163 89L163 72" stroke="#D2D4D8" stroke-width="2" stroke-linecap="square"/>
<path d="M85 68L85 48" stroke="#D2D4D8" stroke-width="2" stroke-linecap="square"/>
<path d="M256 68L256 26" stroke="#D2D4D8" stroke-width="2" stroke-linecap="square"/>
<path d="M85 48L101 48" stroke="#1C293E" stroke-width="2" stroke-linecap="square"/>
<path d="M256 26L310 26" stroke="#75869C" stroke-width="2" stroke-linecap="square"/>
</svg>
