<svg width="18" height="20" viewBox="0 0 18 20" fill="none" xmlns="http://www.w3.org/2000/svg">
<path fill-rule="evenodd" clip-rule="evenodd" d="M0 9C0 5.25027 0 3.3754 0.954915 2.06107C1.26331 1.6366 1.6366 1.26331 2.06107 0.954915C3.3754 0 5.25027 0 9 0C12.7497 0 14.6246 0 15.9389 0.954915C16.3634 1.26331 16.7367 1.6366 17.0451 2.06107C18 3.3754 18 5.25027 18 9V11C18 11.8389 18 12.584 17.9893 13.25L17.9192 13.25C17.0672 13.2499 16.5482 13.2499 16.1005 13.3208C13.6401 13.7105 11.7105 15.6401 11.3208 18.1005C11.2499 18.5482 11.2499 19.0672 11.25 19.9192L11.25 19.9893C10.584 20 9.83894 20 9 20C5.25027 20 3.3754 20 2.06107 19.0451C1.6366 18.7367 1.26331 18.3634 0.954915 17.9389C0 16.6246 0 14.7497 0 11V9ZM5 5.25C4.58579 5.25 4.25 5.58579 4.25 6C4.25 6.41421 4.58579 6.75 5 6.75H8C8.41421 6.75 8.75 6.41421 8.75 6C8.75 5.58579 8.41421 5.25 8 5.25H5ZM5 9.25C4.58579 9.25 4.25 9.58579 4.25 10C4.25 10.4142 4.58579 10.75 5 10.75H13C13.4142 10.75 13.75 10.4142 13.75 10C13.75 9.58579 13.4142 9.25 13 9.25H5ZM5 13.25C4.58579 13.25 4.25 13.5858 4.25 14C4.25 14.4142 4.58579 14.75 5 14.75H8C8.41421 14.75 8.75 14.4142 8.75 14C8.75 13.5858 8.41421 13.25 8 13.25H5Z" fill="white"/>
<path d="M16.3352 14.8023C16.6435 14.7535 17.0243 14.7501 17.9347 14.75C17.8403 16.1896 17.6094 17.1622 17.0451 17.9389C16.7367 18.3634 16.3634 18.7367 15.9389 19.0451C15.1622 19.6094 14.1896 19.8403 12.75 19.9347C12.7501 19.0243 12.7535 18.6435 12.8023 18.3352C13.0904 16.5166 14.5166 15.0904 16.3352 14.8023Z" fill="white"/>
</svg>
