<svg width="18" height="23" viewBox="0 0 18 23" fill="none" xmlns="http://www.w3.org/2000/svg">
<path d="M8.09989 0.25C4.70433 0.25 2.07715 3.22603 2.49831 6.59536L2.57767 7.23021C2.69379 8.15916 2.35446 9.08706 1.66645 9.72195C0.240772 11.0375 -0.155324 13.1315 0.691327 14.8769L0.794678 15.09C1.58385 16.7169 3.23315 17.75 5.04138 17.75H13.2622C14.8219 17.75 16.2735 16.9532 17.111 15.6373C18.2931 13.7799 17.98 11.3432 16.3667 9.84496L16.3228 9.8042C15.5843 9.11833 15.2207 8.11912 15.3457 7.11901L15.4103 6.60208C15.8319 3.22918 13.202 0.25 9.8028 0.25H8.09989Z" fill="#1C293E"/>
<path d="M6.7833 19.55C6.53477 19.2186 6.06467 19.1515 5.7333 19.4C5.40193 19.6485 5.33477 20.1186 5.5833 20.45L5.8833 20.85C7.5333 23.05 10.8333 23.05 12.4833 20.85L12.7833 20.45C13.0318 20.1186 12.9647 19.6485 12.6333 19.4C12.3019 19.1515 11.8318 19.2186 11.5833 19.55L11.2833 19.95C10.2333 21.35 8.1333 21.35 7.0833 19.95L6.7833 19.55Z" fill="#1C293E"/>
</svg>
