<svg width="20" height="11" viewBox="0 0 20 11" fill="none" xmlns="http://www.w3.org/2000/svg">
<path d="M18.8334 10.5C18.5278 10.8056 18.1389 10.9584 17.6667 10.9584C17.1945 10.9584 16.8056 10.8056 16.5 10.5L10 4.00004L3.50004 10.5C3.19449 10.8056 2.8056 10.9584 2.33337 10.9584C1.86115 10.9584 1.47226 10.8056 1.16671 10.5C0.861151 10.1945 0.708374 9.8056 0.708374 9.33337C0.708374 8.86115 0.861151 8.47226 1.16671 8.16671L8.83338 0.50004C9.00004 0.333374 9.1806 0.21504 9.37504 0.14504C9.56949 0.0750401 9.77782 0.0405953 10 0.0417063C10.2223 0.0417064 10.4306 0.0767072 10.625 0.146708C10.8195 0.216708 11 0.334485 11.1667 0.50004L18.8334 8.16671C19.1389 8.47226 19.2917 8.86115 19.2917 9.33338C19.2917 9.8056 19.1389 10.1945 18.8334 10.5Z" fill="#41B631"/>
</svg>
